<svg width="30" height="30" viewBox="0 0 30 30" fill="none" xmlns="http://www.w3.org/2000/svg">
<rect x="3" y="3" width="24" height="24" rx="12" fill="#FF3B30"/>
<mask id="mask0_1355_47282" style="mask-type:alpha" maskUnits="userSpaceOnUse" x="3" y="3" width="24" height="24">
<rect x="3" y="3" width="24" height="24" fill="#D9D9D9"/>
</mask>
<g mask="url(#mask0_1355_47282)">
<path d="M10.1992 19.5751V18.64H11.446V14.1205C11.446 13.2686 11.7084 12.5178 12.2333 11.8683C12.7578 11.2191 13.4304 10.801 14.2512 10.614V10.1777C14.2512 9.95948 14.3266 9.77496 14.4775 9.6241C14.6279 9.47366 14.8122 9.39844 15.0304 9.39844C15.2486 9.39844 15.4329 9.47366 15.5833 9.6241C15.7342 9.77496 15.8096 9.95948 15.8096 10.1777V10.614C16.6304 10.801 17.3032 11.2191 17.8281 11.8683C18.3526 12.5178 18.6148 13.2686 18.6148 14.1205V18.64H19.8616V19.5751H10.1992ZM15.0304 21.3984C14.7187 21.3984 14.4538 21.2893 14.2356 21.0712C14.0174 20.853 13.9083 20.588 13.9083 20.2764H16.1525C16.1525 20.588 16.0434 20.853 15.8252 21.0712C15.607 21.2893 15.3421 21.3984 15.0304 21.3984ZM12.381 18.64H17.6797V14.1205C17.6797 13.3829 17.4225 12.7568 16.908 12.2423C16.3939 11.7282 15.768 11.4712 15.0304 11.4712C14.2927 11.4712 13.6669 11.7282 13.1528 12.2423C12.6383 12.7568 12.381 13.3829 12.381 14.1205V18.64Z" fill="white"/>
</g>
</svg>
