<svg width="40" height="40" viewBox="0 0 40 40" fill="none" xmlns="http://www.w3.org/2000/svg">
<mask id="mask0_1230_38312" style="mask-type:alpha" maskUnits="userSpaceOnUse" x="0" y="0" width="40" height="40">
<rect width="40" height="40" fill="#D9D9D9"/>
</mask>
<g mask="url(#mask0_1230_38312)">
<path d="M15.3226 28C14.9124 28 14.5637 27.8564 14.2765 27.5692C13.9893 27.2821 13.8457 26.9333 13.8457 26.5231V18.8103C13.8457 18.4 13.9893 18.0513 14.2765 17.7641C14.5637 17.4769 14.9124 17.3333 15.3226 17.3333H16.3072V15.6923C16.3072 14.6667 16.6661 13.7947 17.3838 13.0765C18.102 12.3588 18.9739 12 19.9995 12C21.0252 12 21.8971 12.3588 22.6153 13.0765C23.333 13.7947 23.6919 14.6667 23.6919 15.6923V17.3333H24.6765C25.0867 17.3333 25.4354 17.4769 25.7226 17.7641C26.0098 18.0513 26.1534 18.4 26.1534 18.8103V26.5231C26.1534 26.9333 26.0098 27.2821 25.7226 27.5692C25.4354 27.8564 25.0867 28 24.6765 28H15.3226ZM15.3226 26.7692H24.6765C24.7448 26.7692 24.8031 26.7454 24.8512 26.6978C24.8988 26.6497 24.9226 26.5915 24.9226 26.5231V18.8103C24.9226 18.7419 24.8988 18.6836 24.8512 18.6355C24.8031 18.5879 24.7448 18.5641 24.6765 18.5641H15.3226C15.2543 18.5641 15.1963 18.5879 15.1487 18.6355C15.1005 18.6836 15.0765 18.7419 15.0765 18.8103V26.5231C15.0765 26.5915 15.1005 26.6497 15.1487 26.6978C15.1963 26.7454 15.2543 26.7692 15.3226 26.7692ZM19.9995 24.1026C20.3961 24.1026 20.7347 23.9625 21.0153 23.6825C21.2954 23.4018 21.4354 23.0632 21.4354 22.6667C21.4354 22.2701 21.2954 21.9315 21.0153 21.6509C20.7347 21.3708 20.3961 21.2308 19.9995 21.2308C19.603 21.2308 19.2644 21.3708 18.9838 21.6509C18.7037 21.9315 18.5637 22.2701 18.5637 22.6667C18.5637 23.0632 18.7037 23.4018 18.9838 23.6825C19.2644 23.9625 19.603 24.1026 19.9995 24.1026ZM17.538 17.3333H22.4611V15.6923C22.4611 15.0085 22.2218 14.4274 21.7431 13.9487C21.2645 13.4701 20.6833 13.2308 19.9995 13.2308C19.3158 13.2308 18.7346 13.4701 18.256 13.9487C17.7773 14.4274 17.538 15.0085 17.538 15.6923V17.3333Z" fill="#9DB2CE"/>
</g>
</svg>
