<svg width="445" height="389" viewBox="0 0 445 389" fill="none" xmlns="http://www.w3.org/2000/svg">
<g opacity="0.5">
<path d="M338.77 -62.5544C237.15 -127.263 9.63889 -99.2507 -23.8048 88.2953C-61.2054 298.385 242.074 389 242.074 389C242.074 389 78.5487 271.397 271.854 249.642C457.684 228.589 502.97 42.0082 338.8 -62.5544H338.77ZM74.7969 127.769C66.7071 127.769 58.7932 125.372 52.081 120.898C45.3688 116.424 40.1222 110.05 37.0152 102.594C33.9083 95.1375 33.1169 86.9502 34.6997 79.0262C36.2825 71.1021 40.1808 63.8506 45.8964 58.1488C51.612 52.4469 58.9104 48.558 66.8243 46.979C74.7676 45.4001 82.9746 46.2188 90.4489 49.289C97.9232 52.3592 104.313 57.5932 108.797 64.3184C113.282 71.0144 115.686 78.9092 115.686 86.9795C115.686 92.3304 114.63 97.6521 112.579 102.594C110.527 107.535 107.508 112.038 103.727 115.839C99.9163 119.641 95.4318 122.623 90.4489 124.67C85.4954 126.717 80.1608 127.769 74.7969 127.769ZM206.52 127.769C195.675 127.769 185.269 123.471 177.619 115.81C169.94 108.149 165.631 97.7983 165.631 86.9795H247.408C247.408 92.3304 246.353 97.6521 244.302 102.623C242.25 107.565 239.231 112.067 235.42 115.869C231.61 119.67 227.096 122.652 222.143 124.699C217.16 126.746 211.854 127.799 206.461 127.799H206.52V127.769ZM338.243 127.769C330.153 127.769 322.239 125.372 315.527 120.898C308.815 116.424 303.568 110.05 300.461 102.594C297.354 95.1375 296.563 86.9502 298.146 79.0262C299.728 71.1021 303.627 63.8506 309.342 58.1488C315.058 52.4469 322.356 48.558 330.27 46.979C338.214 45.4001 346.421 46.2188 353.895 49.289C361.369 52.3885 367.759 57.5932 372.243 64.3184C376.728 71.0144 379.131 78.9092 379.131 86.9795C379.131 92.3597 378.076 97.6814 376.024 102.623C373.973 107.594 370.924 112.097 367.114 115.869C363.303 119.67 358.79 122.652 353.807 124.699C348.824 126.746 343.489 127.769 338.126 127.769H338.272H338.243Z" fill="white"/>
</g>
</svg>
