<svg width="20" height="22" viewBox="0 0 20 22" fill="none" xmlns="http://www.w3.org/2000/svg">
<path d="M2.25 21.25C1.6875 21.25 1.21333 21.0575 0.8275 20.6725C0.4425 20.2867 0.25 19.8021 0.25 19.2188V2.03125C0.25 1.44792 0.4425 0.96375 0.8275 0.57875C1.21333 0.192916 1.6875 0 2.25 0H10.2813V1.25H2.25C2.0625 1.25 1.89083 1.32833 1.735 1.485C1.57833 1.64083 1.5 1.82292 1.5 2.03125V19.2188C1.5 19.4271 1.57833 19.6092 1.735 19.765C1.89083 19.9217 2.0625 20 2.25 20H10.2813V21.25H2.25ZM15.3438 15.0625L14.4688 14.1562L17.3438 11.25H6.53125V10H17.3438L14.4688 7.09375L15.3438 6.1875L19.75 10.625L15.3438 15.0625Z" fill="#FF314A"/>
</svg>
