<svg width="30" height="30" viewBox="0 0 30 30" fill="none" xmlns="http://www.w3.org/2000/svg">
<path d="M15 14.2453C14.0476 14.2453 13.2381 13.8931 12.5714 13.1887C11.9048 12.4843 11.5714 11.6289 11.5714 10.6226C11.5714 9.63648 11.9048 8.78596 12.5714 8.07109C13.2381 7.35703 14.0476 7 15 7C15.9524 7 16.7619 7.35703 17.4286 8.07109C18.0952 8.78596 18.4286 9.63648 18.4286 10.6226C18.4286 11.6289 18.0952 12.4843 17.4286 13.1887C16.7619 13.8931 15.9524 14.2453 15 14.2453ZM7 23V21.0075C7 20.5044 7.13829 20.0363 7.41486 19.6032C7.69067 19.1709 8.05714 18.834 8.51429 18.5925C9.6 18.0491 10.6811 17.6413 11.7577 17.3692C12.8335 17.0979 13.9143 16.9623 15 16.9623C16.0857 16.9623 17.1669 17.0979 18.2434 17.3692C19.3192 17.6413 20.4 18.0491 21.4857 18.5925C21.9429 18.834 22.3097 19.1709 22.5863 19.6032C22.8621 20.0363 23 20.5044 23 21.0075V23H7ZM8.14286 21.7925H21.8571V21.0075C21.8571 20.7258 21.7764 20.469 21.6149 20.2371C21.4526 20.0061 21.2286 19.8101 20.9429 19.6491C19.9905 19.166 19.0145 18.7989 18.0149 18.5478C17.0145 18.2958 16.0095 18.1698 15 18.1698C13.9905 18.1698 12.9859 18.2958 11.9863 18.5478C10.9859 18.7989 10.0095 19.166 9.05714 19.6491C8.77143 19.8101 8.54781 20.0061 8.38629 20.2371C8.224 20.469 8.14286 20.7258 8.14286 21.0075V21.7925ZM15 13.0377C15.6286 13.0377 16.1669 12.8011 16.6149 12.3277C17.0621 11.8551 17.2857 11.2868 17.2857 10.6226C17.2857 9.95849 17.0621 9.39014 16.6149 8.91758C16.1669 8.44423 15.6286 8.20755 15 8.20755C14.3714 8.20755 13.8335 8.44423 13.3863 8.91758C12.9383 9.39014 12.7143 9.95849 12.7143 10.6226C12.7143 11.2868 12.9383 11.8551 13.3863 12.3277C13.8335 12.8011 14.3714 13.0377 15 13.0377Z" fill="#9DB2CE"/>
</svg>
