<svg width="21" height="17" viewBox="0 0 21 17" fill="none" xmlns="http://www.w3.org/2000/svg">
<path d="M17.0248 9.07441V7.4295H21V9.07441H17.0248ZM18.2859 16.4491L15.1057 14.064L16.1201 12.7755L19.3003 15.1332L18.2859 16.4491ZM16.0653 3.70104L15.0783 2.38512L18.2585 0L19.2454 1.31593L16.0653 3.70104ZM3.09791 15.3525V11.0757H1.97389C1.42559 11.0757 0.95953 10.8838 0.575718 10.5C0.191906 10.1162 0 9.65013 0 9.10183V7.40209C0 6.85379 0.191906 6.38773 0.575718 6.00392C0.95953 5.6201 1.42559 5.4282 1.97389 5.4282H6.22324L11.1305 2.49478V14.0091L6.22324 11.0757H4.74282V15.3525H3.09791ZM12.6384 11.6789V4.82507C13.077 5.22715 13.429 5.72063 13.6944 6.30548C13.9591 6.89034 14.0914 7.53916 14.0914 8.25196C14.0914 8.96475 13.9591 9.61357 13.6944 10.1984C13.429 10.7833 13.077 11.2768 12.6384 11.6789ZM1.97389 7.07311C1.90078 7.07311 1.82768 7.10966 1.75457 7.18277C1.68146 7.25587 1.64491 7.32898 1.64491 7.40209V9.10183C1.64491 9.17493 1.68146 9.24804 1.75457 9.32115C1.82768 9.39425 1.90078 9.43081 1.97389 9.43081H6.66188L9.48564 11.0757V5.4282L6.66188 7.07311H1.97389Z" fill="#A0A1BF"/>
</svg>
