<svg width="16" height="16" viewBox="0 0 16 16" fill="none" xmlns="http://www.w3.org/2000/svg">
<path d="M8 7.24528C7.04762 7.24528 6.2381 6.89308 5.57143 6.18868C4.90476 5.48428 4.57143 4.62893 4.57143 3.62264C4.57143 2.63648 4.90476 1.78596 5.57143 1.07109C6.2381 0.357032 7.04762 0 8 0C8.95238 0 9.7619 0.357032 10.4286 1.07109C11.0952 1.78596 11.4286 2.63648 11.4286 3.62264C11.4286 4.62893 11.0952 5.48428 10.4286 6.18868C9.7619 6.89308 8.95238 7.24528 8 7.24528ZM0 16V14.0075C0 13.5044 0.138286 13.0363 0.414857 12.6032C0.690667 12.1709 1.05714 11.834 1.51429 11.5925C2.6 11.0491 3.68114 10.6413 4.75771 10.3692C5.83352 10.0979 6.91429 9.96226 8 9.96226C9.08571 9.96226 10.1669 10.0979 11.2434 10.3692C12.3192 10.6413 13.4 11.0491 14.4857 11.5925C14.9429 11.834 15.3097 12.1709 15.5863 12.6032C15.8621 13.0363 16 13.5044 16 14.0075V16H0ZM1.14286 14.7925H14.8571V14.0075C14.8571 13.7258 14.7764 13.469 14.6149 13.2371C14.4526 13.0061 14.2286 12.8101 13.9429 12.6491C12.9905 12.166 12.0145 11.7989 11.0149 11.5478C10.0145 11.2958 9.00952 11.1698 8 11.1698C6.99048 11.1698 5.98591 11.2958 4.98629 11.5478C3.9859 11.7989 3.00952 12.166 2.05714 12.6491C1.77143 12.8101 1.54781 13.0061 1.38629 13.2371C1.224 13.469 1.14286 13.7258 1.14286 14.0075V14.7925ZM8 6.03774C8.62857 6.03774 9.16686 5.80106 9.61486 5.3277C10.0621 4.85514 10.2857 4.28679 10.2857 3.62264C10.2857 2.95849 10.0621 2.39014 9.61486 1.91758C9.16686 1.44423 8.62857 1.20755 8 1.20755C7.37143 1.20755 6.83352 1.44423 6.38629 1.91758C5.93829 2.39014 5.71429 2.95849 5.71429 3.62264C5.71429 4.28679 5.93829 4.85514 6.38629 5.3277C6.83352 5.80106 7.37143 6.03774 8 6.03774Z" fill="#9DB2CE"/>
</svg>
