<svg width="20" height="19" viewBox="0 0 20 19" fill="none" xmlns="http://www.w3.org/2000/svg">
<path d="M10 8.59375C8.7915 8.59375 7.78625 8.19275 6.98425 7.39075C6.18225 6.58875 5.78125 5.5835 5.78125 4.375C5.78125 3.167 6.18225 2.162 6.98425 1.36C7.78625 0.5575 8.7915 0.15625 10 0.15625C11.2085 0.15625 12.2137 0.5575 13.0157 1.36C13.8177 2.162 14.2188 3.167 14.2188 4.375C14.2188 5.5835 13.8177 6.58875 13.0157 7.39075C12.2137 8.19275 11.2085 8.59375 10 8.59375ZM0.625 18.1255V15.625C0.625 14.9795 0.797 14.4015 1.141 13.891C1.4845 13.3805 1.948 12.9897 2.5315 12.7188C3.802 12.1357 5.057 11.6932 6.2965 11.3912C7.5365 11.0887 8.771 10.9375 10 10.9375C11.229 10.9375 12.4583 11.0887 13.6877 11.3912C14.9167 11.6932 16.177 12.1357 17.4685 12.7188C18.052 12.9897 18.5155 13.3805 18.859 13.891C19.203 14.4015 19.375 14.9795 19.375 15.625V18.1255H0.625ZM2.18725 16.5625H17.8127V15.625C17.8127 15.3335 17.719 15.0522 17.5315 14.7812C17.344 14.5107 17.094 14.292 16.7815 14.125C15.6145 13.542 14.479 13.1255 13.375 12.8755C12.271 12.6255 11.146 12.5005 10 12.5005C8.854 12.5005 7.72375 12.6255 6.60925 12.8755C5.49475 13.1255 4.35425 13.542 3.18775 14.125C2.89575 14.292 2.656 14.5107 2.4685 14.7812C2.281 15.0522 2.18725 15.3335 2.18725 15.625V16.5625ZM10 7.0315C10.75 7.0315 11.3802 6.77625 11.8907 6.26575C12.4012 5.75525 12.6565 5.125 12.6565 4.375C12.6565 3.625 12.4012 2.995 11.8907 2.485C11.3802 1.9745 10.75 1.71925 10 1.71925C9.25 1.71925 8.61975 1.9745 8.10925 2.485C7.59875 2.995 7.3435 3.625 7.3435 4.375C7.3435 5.125 7.59875 5.75525 8.10925 6.26575C8.61975 6.77625 9.25 7.0315 10 7.0315Z" fill="#A0A1BF"/>
</svg>
