<svg width="17" height="23" viewBox="0 0 17 23" fill="none" xmlns="http://www.w3.org/2000/svg">
<path d="M1.71635 22.8846C1.24383 22.8846 0.839756 22.7166 0.504115 22.3805C0.168038 22.0444 0 21.6403 0 21.1683V1.71635C0 1.24427 0.168038 0.840192 0.504115 0.504115C0.839756 0.168038 1.24383 0 1.71635 0H12.4499C12.9224 0 13.3265 0.168038 13.6621 0.504115C13.9982 0.840192 14.1662 1.24427 14.1662 1.71635V5.50342H12.8043V3.97735H1.36196V18.9073H12.8043V17.3812H14.1662V21.1683C14.1662 21.6403 13.9982 22.0444 13.6621 22.3805C13.3265 22.7166 12.9224 22.8846 12.4499 22.8846H1.71635ZM1.36196 20.2967V21.1683C1.36196 21.2589 1.39836 21.3407 1.47115 21.4135C1.54351 21.4863 1.62524 21.5227 1.71635 21.5227H12.4499C12.541 21.5227 12.6227 21.4863 12.6951 21.4135C12.7679 21.3407 12.8043 21.2589 12.8043 21.1683V20.2967H1.36196ZM12.8043 15.1745L12.6951 14.112C12.4409 14.0575 12.223 13.9714 12.0412 13.8537C11.8599 13.7356 11.6964 13.5948 11.5508 13.4313L10.5975 13.8942L9.94369 12.7775L10.7885 12.1504C10.6974 11.9325 10.6518 11.6873 10.6518 11.4148C10.6518 11.1424 10.6974 10.8883 10.7885 10.6525L9.94369 10.0254L10.625 8.93612L11.5508 9.39904C11.6964 9.23558 11.8599 9.09478 12.0412 8.97666C12.223 8.85853 12.4409 8.77222 12.6951 8.71773L12.8043 7.65523H14.112L14.248 8.71773C14.5025 8.77222 14.7205 8.85853 14.9018 8.97666C15.0836 9.09478 15.247 9.23558 15.3922 9.39904L16.3187 8.93612L17 10.0254L16.1552 10.6525C16.2459 10.8883 16.2912 11.1424 16.2912 11.4148C16.2912 11.6873 16.2459 11.9325 16.1552 12.1504L17 12.7775L16.3187 13.8942L15.3922 13.4313C15.247 13.5948 15.0792 13.7356 14.8887 13.8537C14.6978 13.9714 14.4842 14.0575 14.248 14.112L14.112 15.1745H12.8043ZM13.4581 13.1587C13.9485 13.1587 14.3617 12.9906 14.6978 12.6545C15.0339 12.3185 15.2019 11.9052 15.2019 11.4148C15.2019 10.9245 15.0339 10.5112 14.6978 10.1752C14.3617 9.83951 13.9485 9.67169 13.4581 9.67169C12.9677 9.67169 12.5591 9.83951 12.2322 10.1752C11.9052 10.5112 11.7418 10.9245 11.7418 11.4148C11.7418 11.9052 11.9052 12.3185 12.2322 12.6545C12.5591 12.9906 12.9677 13.1587 13.4581 13.1587ZM1.36196 2.58792H12.8043V1.71635C12.8043 1.62568 12.7679 1.54395 12.6951 1.47115C12.6227 1.39836 12.541 1.36196 12.4499 1.36196H1.71635C1.62524 1.36196 1.54351 1.39836 1.47115 1.47115C1.39836 1.54395 1.36196 1.62568 1.36196 1.71635V2.58792ZM1.36196 20.2967V21.5227V21.1683V20.2967Z" fill="#A0A1BF"/>
</svg>
