<svg width="19" height="17" viewBox="0 0 19 17" fill="none" xmlns="http://www.w3.org/2000/svg">
<path d="M5.25011 10.9754H6.19993V7.72516H5.25011V8.87539H3.75008V9.82521H5.25011V10.9754ZM7.44976 9.82521H15.2499V8.87539H7.44976V9.82521ZM12.8001 7.27515H13.7499V6.12553H15.2499V5.17511H13.7499V4.02548H12.8001V7.27515ZM3.75008 6.12553H11.5502V5.17511H3.75008V6.12553ZM6.12493 17.0008V15.0003H1.57503C1.14142 15.0003 0.770616 14.8461 0.46261 14.5377C0.154203 14.2297 0 13.8589 0 13.4253V1.57503C0 1.14182 0.154203 0.771016 0.46261 0.46261C0.770616 0.154203 1.14142 0 1.57503 0H17.425C17.8586 0 18.2294 0.154203 18.5374 0.46261C18.8458 0.771016 19 1.14182 19 1.57503V13.4253C19 13.8589 18.8458 14.2297 18.5374 14.5377C18.2294 14.8461 17.8586 15.0003 17.425 15.0003H12.8751V17.0008H6.12493ZM1.57503 13.7505H17.425C17.5086 13.7505 17.5836 13.7171 17.65 13.6503C17.7168 13.5839 17.7502 13.5089 17.7502 13.4253V1.57503C17.7502 1.49183 17.7168 1.41683 17.65 1.35003C17.5836 1.28363 17.5086 1.25043 17.425 1.25043H1.57503C1.49143 1.25043 1.41643 1.28363 1.35003 1.35003C1.28323 1.41683 1.24983 1.49183 1.24983 1.57503V13.4253C1.24983 13.5089 1.28323 13.5839 1.35003 13.6503C1.41643 13.7171 1.49143 13.7505 1.57503 13.7505Z" fill="#A0A1BF"/>
</svg>
