<svg width="19" height="20" viewBox="0 0 19 20" fill="none" xmlns="http://www.w3.org/2000/svg">
<path d="M7.372 19.2529L6.94154 16.188C6.62051 16.0867 6.27841 15.9347 5.91523 15.732C5.55205 15.5293 5.23549 15.3096 4.96554 15.0729L2.128 16.34L0 12.5905L2.53354 10.716C2.49949 10.547 2.47841 10.3654 2.4703 10.1712C2.46179 9.97708 2.45754 9.79549 2.45754 9.62646C2.45754 9.47446 2.46179 9.30139 2.4703 9.10723C2.47841 8.91308 2.49949 8.72298 2.53354 8.53693L0 6.66246L2.128 2.93846L4.96554 4.18C5.25251 3.94329 5.57333 3.72785 5.928 3.5337C6.28267 3.33954 6.62051 3.18329 6.94154 3.06493L7.372 0H11.628L12.0585 3.06493C12.3965 3.20031 12.7344 3.36082 13.072 3.54646C13.4096 3.73211 13.7136 3.94329 13.984 4.18L16.872 2.93846L19 6.66246L16.416 8.53693C16.4667 8.72298 16.4963 8.90882 16.5048 9.09446C16.5133 9.28011 16.5175 9.45744 16.5175 9.62646C16.5175 9.79549 16.509 9.96856 16.492 10.1457C16.475 10.3232 16.4496 10.5133 16.416 10.716L18.9745 12.5905L16.8465 16.34L13.984 15.048C13.697 15.3013 13.3888 15.5293 13.0592 15.732C12.7301 15.9347 12.3965 16.0867 12.0585 16.188L11.628 19.2529H7.372ZM9.47446 12.54C10.2851 12.54 10.9776 12.2571 11.552 11.6912C12.1264 11.1254 12.4135 10.4371 12.4135 9.62646C12.4135 8.8158 12.1264 8.12754 11.552 7.5617C10.9776 6.99585 10.2851 6.71293 9.47446 6.71293C8.6638 6.71293 7.97554 6.99585 7.4097 7.5617C6.84426 8.12754 6.56154 8.8158 6.56154 9.62646C6.56154 10.4371 6.84426 11.1254 7.4097 11.6912C7.97554 12.2571 8.6638 12.54 9.47446 12.54ZM9.47446 11.2729C9.01846 11.2729 8.63421 11.1126 8.3217 10.792C8.00959 10.471 7.85354 10.0825 7.85354 9.62646C7.85354 9.17046 8.00959 8.78195 8.3217 8.46093C8.63421 8.14031 9.01846 7.98 9.47446 7.98C9.94749 7.98 10.3403 8.14031 10.6528 8.46093C10.9653 8.78195 11.1215 9.17046 11.1215 9.62646C11.1215 10.0825 10.9653 10.471 10.6528 10.792C10.3403 11.1126 9.94749 11.2729 9.47446 11.2729ZM8.436 17.9865H10.5385L10.9185 15.2C11.4422 15.0646 11.932 14.8662 12.388 14.6048C12.844 14.3429 13.2747 14.0093 13.68 13.604L16.2895 14.7185L17.3025 12.9449L14.9975 11.248C15.0818 10.9606 15.1408 10.686 15.1745 10.4242C15.2085 10.1627 15.2255 9.89682 15.2255 9.62646C15.2255 9.35611 15.2085 9.09426 15.1745 8.84093C15.1408 8.58759 15.0818 8.31744 14.9975 8.03046L17.328 6.308L16.3145 4.53446L13.68 5.67446C13.3253 5.28615 12.9032 4.94 12.4135 4.636C11.9235 4.332 11.4168 4.13764 10.8935 4.05293L10.564 1.26646H8.436L8.10646 4.05293C7.56615 4.17129 7.06374 4.36139 6.59923 4.62323C6.13472 4.88508 5.6998 5.22698 5.29446 5.64893L2.68554 4.53446L1.672 6.308L3.97754 8.00493C3.89282 8.25826 3.83364 8.52011 3.8 8.79046C3.76636 9.06082 3.74954 9.33949 3.74954 9.62646C3.74954 9.91344 3.76636 10.1879 3.8 10.4497C3.83364 10.7115 3.88431 10.9776 3.952 11.248L1.672 12.9449L2.68554 14.7185L5.29446 13.604C5.68318 14.0093 6.10979 14.3429 6.5743 14.6048C7.03841 14.8662 7.54913 15.0646 8.10646 15.2L8.436 17.9865Z" fill="#A0A1BF"/>
</svg>
